<svg version="1.1" viewBox="0 0 180 180" xmlns="http://www.w3.org/2000/svg">
 <g transform="matrix(1.0319 0 0 1.0321 -570.55 -252.45)">
  <circle class="st25" cx="640.1" cy="331.8" r="87.2" fill="#cbdd5c"/>
  <path class="st26" d="m719 294.5c6.2 19.4 5.6 41.1-3.2 61.2-19.2 44.2-70.6 64.4-114.8 45.1-20.1-8.8-35.3-24.2-44-42.7 7.4 23.1 24.3 43.1 48.3 53.6 44.2 19.2 95.5-1 114.8-45.1 10.4-24 9.2-50.2-1.1-72.1z" fill="#c0d258"/>
  <g fill="#fff">
   <path class="st2" d="m675.3 347.1c9.5-21.9 25.6-38.9 44.9-49.9-1.3-2.9-2.7-5.8-4.3-8.6-21.9 12.3-39.1 31.3-49.3 54.7s-12.4 49-6.5 73.4c3.1-0.7 6.2-1.6 9.2-2.7-5.1-21.7-3.5-45 6-66.9z"/>
   <path class="st2" d="m604.9 316.4c-9.5 21.9-25.6 38.9-44.9 49.9 1.3 2.9 2.7 5.8 4.3 8.6 21.9-12.3 39.1-31.3 49.3-54.7s12.4-49 6.5-73.4c-3.1 0.7-6.2 1.6-9.2 2.7 5.1 21.7 3.6 45.1-6 66.9z"/>
  </g>
  <path class="st6" d="m719.8 297.4c0.1-0.1 0.3-0.1 0.4-0.2-0.4-0.9-0.8-1.9-1.3-2.8 0.3 1 0.6 2 0.9 3z" fill="#d1d3d4"/>
  <path class="st3" d="m657.9 405c0.5 3.9 1.3 7.8 2.2 11.7 3.1-0.7 6.2-1.6 9.2-2.7-0.9-3.9-1.6-7.9-2.1-12-3 1.1-6.1 2.2-9.3 3z" fill="#e6e7e8"/>
  <path class="st3" d="m566.5 373.7c-1.9-2.6-3.7-5.2-5.4-7.9-0.3 0.2-0.7 0.4-1 0.6v0.1c0.3 0.6 0.6 1.3 0.8 1.9 0 0.1 0.1 0.2 0.1 0.3 0.3 0.5 0.5 1.1 0.8 1.6 0.1 0.2 0.2 0.4 0.3 0.5 0.1 0.3 0.3 0.5 0.4 0.8 0.6 1.2 1.2 2.3 1.8 3.4 0.8-0.5 1.5-0.9 2.2-1.3z" fill="#e6e7e8"/>
 </g>
</svg>
